<?xml version="1.0" encoding="UTF-8" standalone="no"?>
<svg xmlns="http://www.w3.org/2000/svg" width="1200" height="630" viewBox="0 0 1200 630">
  <rect width="1200" height="630" fill="#eef4f2" />
  <rect width="1200" height="14" fill="#1e7c6b" />
  <rect y="616" width="1200" height="14" fill="#1e7c6b" />
  <svg x="120" y="120" width="250" height="390" viewBox="0 0 66.858688 104.36848" preserveAspectRatio="xMidYMid meet">
    <g transform="translate(-128.02232,-73.32924)">
      <path
        style="fill:#1e7c6b"
        d="m 153.73829,177.20626 -1.5875,-0.62191 -0.1323,-11.64935 c -0.0728,-6.40715 -0.22051,-11.73747 -0.32833,-11.84515 -0.21151,-0.21124 -17.05128,-5.12525 -17.59404,-5.13411 -0.25358,-0.004 -0.34324,2.27845 -0.39687,10.10402 l -0.0693,10.10938 -1.0116,0.38496 c -0.93446,0.35559 -1.0986,0.34268 -2.15242,-0.1693 l -1.14081,-0.55425 -0.19851,-6.83123 c -0.10917,-3.75718 -0.13703,-17.72545 -0.0619,-31.0406 0.13578,-24.0656 -0.0793,-36.220987 -0.8661,-48.947919 -0.24757,-4.004502 -0.23811,-5.087287 0.052,-5.953125 0.35051,-1.046168 0.36978,-1.058333 1.67635,-1.058333 1.11694,0 1.36224,0.09225 1.58294,0.595312 0.315,0.71798 -1.62124,0.697046 18.10198,0.195707 14.92757,-0.37944 15.46535,-0.410796 15.82386,-0.922633 0.44475,-0.634976 2.22167,-0.736259 2.70476,-0.154169 0.34919,0.420739 0.59947,2.651351 1.24924,11.133699 0.30097,3.929048 0.49575,10.593293 0.59931,20.505211 l 0.15342,14.68437 10.18646,1.66463 c 12.99967,2.12435 12.82389,2.0876 13.7614,2.87647 l 0.79068,0.66532 v 21.00406 21.00406 l -0.84164,0.43523 c -0.79915,0.41326 -0.94039,0.40426 -2.79739,-0.17812 l -1.95575,-0.61336 0.19099,-10.79529 c 0.10505,-5.93741 0.11698,-10.79529 0.0265,-10.79529 -0.0905,0 -4.45032,-1.01203 -9.68859,-2.24896 -5.23826,-1.23693 -9.58731,-2.24896 -9.66454,-2.24896 -0.0772,0 -0.14043,4.26628 -0.14043,9.48061 v 9.48061 l -0.95294,0.29247 c -0.81371,0.24973 -1.12298,0.20985 -2.11667,-0.27292 l -1.16372,-0.56538 v -11.05978 c 0,-10.53011 -0.0231,-11.05977 -0.4829,-11.05977 -0.45589,0 -5.84042,0.90504 -7.12387,1.19739 l -0.59532,0.13561 v 19.42621 c 0,10.68443 -0.0902,19.48197 -0.20045,19.55011 -0.72256,0.44657 -2.18203,0.36407 -3.636,-0.20553 z m -1.98438,-34.662 c 0,-6.17952 -0.0378,-6.74035 -0.46302,-6.86741 -0.25466,-0.0761 -3.64504,-0.86397 -7.53419,-1.75082 -6.93869,-1.58225 -7.385,-1.63623 -9.66372,-1.1689 -0.5945,0.12192 -0.59532,0.12963 -0.59532,5.65768 0,3.69629 0.0954,5.59458 0.28726,5.71313 0.24204,0.14959 17.18405,5.02637 17.77055,5.11528 0.10914,0.0165 0.19844,-2.99799 0.19844,-6.69896 z m 37.88376,-5.11106 c 0.0462,-2.43748 0.0556,-4.47997 0.0209,-4.53888 -0.0347,-0.0589 -4.43997,0.65598 -9.78959,1.58863 -9.29204,1.61997 -9.73036,1.72232 -9.81128,2.2911 -0.0501,0.35225 0.0813,0.65906 0.32177,0.75134 0.44805,0.17194 18.35948,4.26621 18.86127,4.3114 0.2265,0.0204 0.33611,-1.19589 0.39688,-4.40359 z m -39.49638,-15.82833 c 8.52395,-1.10212 15.54579,-2.05155 15.60409,-2.10985 0.0583,-0.0583 0.16571,-4.03813 0.23869,-8.84407 0.10119,-6.66431 0.0578,-8.73807 -0.18289,-8.73807 -0.17356,0 -7.45915,0.59532 -16.19019,1.32292 -8.73104,0.7276 -15.98787,1.32292 -16.12627,1.32292 -0.29639,0 -0.32149,4.23337 -0.0765,12.89843 0.16747,5.92254 0.19369,6.15157 0.70445,6.15157 0.29178,0 7.50466,-0.90173 16.02861,-2.00385 z m 0.25986,-23.710036 15.71286,-1.123581 -0.17644,-2.905091 c -0.097,-1.597801 -0.20855,-2.937198 -0.24779,-2.97644 -0.0493,-0.04929 -31.74875,1.654735 -32.65514,1.7554 -0.14846,0.01649 -0.0536,6.281684 0.0974,6.432679 0.0899,0.08994 0.4769,0.113371 0.8599,0.05207 0.383,-0.0613 7.76716,-0.617068 16.40923,-1.235038 z m 0.24157,-11.701149 c 8.19285,-0.342841 14.95278,-0.680028 15.02206,-0.749304 0.0693,-0.06928 0.0458,-1.445882 -0.0522,-3.059123 l -0.17814,-2.933166 -0.6887,0.107366 c -0.37879,0.05905 -7.5348,0.236496 -15.90224,0.39432 -8.36745,0.157825 -15.60681,0.347736 -16.08746,0.422025 -0.85625,0.13234 -0.87113,0.157503 -0.73638,1.24493 0.0756,0.610423 0.21118,2.032594 0.30118,3.160381 l 0.16364,2.05052 1.63107,-0.0073 c 0.89709,-0.004 8.33432,-0.287808 16.52717,-0.630649 z" />
    </g>
  </svg>
  <text x="430" y="300" font-family="'DejaVu Sans', sans-serif" font-size="66" font-weight="700" fill="#163f39">Encordado de sillas</text>
  <text x="432" y="372" font-family="'DejaVu Sans', sans-serif" font-size="38" font-weight="400" fill="#5a6360">Patrones de tejido</text>
</svg>
