<?xml version="1.0" encoding="UTF-8" standalone="no"?>
<svg
   viewBox="0 0 448 448"
   version="1.1"
   id="svg1"
   width="448"
   height="448"
   xmlns="http://www.w3.org/2000/svg"
   xmlns:svg="http://www.w3.org/2000/svg">
  <defs
     id="defs1" />
  <path
     fill="currentColor"
     d="M 160,32 C 160,14.3 174.3,0 192,0 h 64 c 17.7,0 32,14.3 32,32 0,17.7 -14.3,32 -32,32 H 192 C 174.3,64 160,49.7 160,32 Z M 119.8,28.5 C 122,46 109.5,62 92,64.2 77.6,66 66.1,77.5 64.3,91.9 62.1,109.4 46.1,121.9 28.6,119.7 11.1,117.5 -1.4,101.6 0.7,84 6.2,40.6 40.6,6.2 84,0.7 101.6,-1.4 117.6,11 119.8,28.5 Z m 208.5,0 C 330.5,11 346.5,-1.5 364,0.7 407.5,6.1 441.9,40.5 447.3,84 449.5,101.5 437,117.5 419.5,119.7 402,121.9 386,109.4 383.8,91.9 382,77.5 370.5,66 356.1,64.2 338.6,62 326.1,46 328.3,28.5 Z M 32,160 c 17.7,0 32,14.3 32,32 v 64 C 64,273.7 49.7,288 32,288 14.3,288 0,273.7 0,256 v -64 c 0,-17.7 14.3,-32 32,-32 z m 384,0 c 17.7,0 32,14.3 32,32 v 64 c 0,17.7 -14.3,32 -32,32 -17.7,0 -32,-14.3 -32,-32 v -64 c 0,-17.7 14.3,-32 32,-32 z M 28.5,328.2 C 46,326 62,338.5 64.2,356 c 1.8,14.4 13.3,25.9 27.7,27.7 17.5,2.2 30,18.2 27.8,35.7 -2.2,17.5 -18.2,30 -35.7,27.8 C 40.6,441.8 6.2,407.4 0.7,364 -1.4,346.4 11,330.4 28.5,328.2 Z m 390.9,0 c 17.5,2.2 30,18.2 27.8,35.7 -5.4,43.5 -39.8,77.9 -83.3,83.3 -17.5,2.2 -33.5,-10.3 -35.7,-27.8 -2.2,-17.5 10.3,-33.5 27.8,-35.7 14.4,-1.8 25.9,-13.3 27.7,-27.7 2.2,-17.5 18.2,-30 35.7,-27.8 z M 160,416 c 0,-17.7 14.3,-32 32,-32 h 64 c 17.7,0 32,14.3 32,32 0,17.7 -14.3,32 -32,32 h -64 c -17.7,0 -32,-14.3 -32,-32 z"
     id="path1" />
</svg>
